<svg version="1.1" id="Layer_1" xmlns="http://www.w3.org/2000/svg" xmlns:xlink="http://www.w3.org/1999/xlink" x="0px" y="0px"
	 width="100%" viewBox="0 0 1700 2200" enable-background="new 0 0 1700 2200" xml:space="preserve">
<path fill="" opacity="0" stroke="none" 
	d="
M837.000000,2201.000000 
	C558.000000,2201.000000 279.500000,2201.000000 1.000000,2201.000000 
	C1.000000,1467.666626 1.000000,734.333313 1.000000,1.000000 
	C567.666687,1.000000 1134.333374,1.000000 1701.000000,1.000000 
	C1701.000000,734.333313 1701.000000,1467.666626 1701.000000,2201.000000 
	C1413.166626,2201.000000 1125.333374,2201.000000 837.000000,2201.000000 
M351.152679,771.334167 
	C359.677643,788.848450 373.528656,798.093262 393.154541,798.050415 
	C417.178101,797.998047 436.721466,778.825500 437.735565,754.518860 
	C438.700531,731.389771 419.941528,709.975708 397.037262,708.060364 
	C372.600525,706.016968 350.815094,722.701538 348.024017,746.399719 
	C347.190063,753.480774 348.640259,760.830811 348.577362,768.820312 
	C342.256866,764.887451 335.936371,760.954651 329.608032,757.016968 
	C308.369110,776.876038 285.822693,778.496704 269.785461,761.294739 
	C255.518829,745.992004 256.508881,721.919922 271.739685,707.326294 
	C284.779297,694.832153 311.349823,690.417603 329.690247,713.818604 
	C336.411957,709.344360 343.141846,704.864685 349.774597,700.449646 
	C349.463074,699.637146 349.399719,699.296692 349.222015,699.033386 
	C333.101318,675.151672 301.208435,665.816467 273.889984,676.974854 
	C246.589584,688.125854 230.043976,717.275513 235.511261,745.529724 
	C240.641205,772.040771 256.375153,789.745300 282.594330,796.159119 
	C308.756958,802.559021 330.834473,794.338013 347.942261,773.310364 
	C348.804443,772.250671 350.024292,771.481995 351.152679,771.334167 
M313.785492,518.746033 
	C274.253143,508.458038 236.204132,536.119629 234.896637,576.803528 
	C234.046982,603.240723 246.086716,623.261108 269.701752,634.934998 
	C293.553192,646.725830 316.868866,643.784668 337.346466,626.797668 
	C355.863220,611.437317 363.170990,590.889587 358.564545,567.314087 
	C353.763794,542.743896 338.534393,526.614868 313.785492,518.746033 
M644.432983,548.053711 
	C634.528442,531.797546 620.349609,520.599670 601.509399,518.586060 
	C584.609680,516.779785 567.364502,518.205688 550.089966,518.205688 
	C550.089966,558.678589 550.089966,599.716980 550.089966,640.864807 
	C565.863647,640.864807 581.337891,640.925964 596.810669,640.805420 
	C599.435730,640.784912 602.088562,640.127808 604.671448,639.521484 
	C645.236572,629.998108 664.508484,586.375305 644.432983,548.053711 
M574.910400,746.701294 
	C574.112366,731.428345 567.092773,719.868347 553.379517,713.177856 
	C537.979492,705.664429 523.622681,708.801514 510.495361,719.458984 
	C498.526581,709.447571 485.205383,706.509216 470.322449,711.819397 
	C470.065460,710.491821 469.851013,709.384277 469.656219,708.378052 
	C461.767883,708.378052 454.035797,708.378052 446.483856,708.378052 
	C446.483856,738.141235 446.483856,767.521484 446.483856,796.783325 
	C454.470062,796.783325 462.054443,796.783325 469.965790,796.783325 
	C469.965790,794.651672 469.965424,792.845520 469.965881,791.039368 
	C469.969604,776.541443 469.848480,762.041992 470.025635,747.546204 
	C470.126984,739.253540 476.291870,733.190796 484.183350,733.055054 
	C491.706757,732.925720 497.889648,738.811462 498.559875,746.807800 
	C498.698669,748.463501 498.641754,750.137268 498.642334,751.802673 
	C498.647491,766.768433 498.645355,781.734192 498.645355,796.902649 
	C506.713318,796.902649 514.323059,796.902649 522.439758,796.902649 
	C522.439758,794.895630 522.439514,793.095154 522.439758,791.294678 
	C522.441589,776.963379 522.325867,762.630737 522.488342,748.301270 
	C522.590393,739.302490 528.804688,732.948059 536.895813,733.059814 
	C545.117371,733.173401 550.997498,739.565247 551.023254,748.555298 
	C551.064331,762.886475 551.034241,777.217834 551.034241,791.549133 
	C551.034241,793.313171 551.034241,795.077271 551.034241,796.815918 
	C559.303711,796.815918 566.889038,796.815918 574.914551,796.815918 
	C574.914551,780.234131 574.914551,763.945251 574.910400,746.701294 
M623.756958,733.083923 
	C633.349487,733.613342 638.807556,739.140747 638.862061,748.664490 
	C638.944153,762.994995 638.883789,777.326294 638.884033,791.657288 
	C638.884094,793.406067 638.884033,795.154785 638.884033,796.731628 
	C647.226501,796.731628 654.792786,796.731628 662.685364,796.731628 
	C662.685364,794.536743 662.685486,792.726990 662.685364,790.917175 
	C662.684265,777.087952 662.614502,763.258362 662.705139,749.429688 
	C662.769531,739.606689 668.624146,733.020874 676.994263,733.051025 
	C683.968872,733.076111 691.684998,738.964172 691.305969,749.472412 
	C690.802185,763.439331 691.178223,777.437866 691.176331,791.422852 
	C691.176086,793.193054 691.176331,794.963257 691.176331,796.845215 
	C699.442810,796.845215 707.024536,796.845215 715.041382,796.845215 
	C715.041382,780.616089 715.049805,764.657593 715.031372,748.699036 
	C715.028809,746.534973 715.069031,744.347717 714.788391,742.210754 
	C712.039001,721.274414 691.953979,705.987244 671.337952,709.979492 
	C664.062378,711.388428 657.253845,715.208862 649.353455,718.268555 
	C633.876587,708.332092 629.475464,707.476868 611.066589,711.359497 
	C610.115723,710.206299 609.245605,708.194397 608.303223,708.159912 
	C601.058289,707.895264 593.799438,708.014465 586.654175,708.014465 
	C586.654175,738.104492 586.654175,767.476929 586.654175,796.775818 
	C594.655212,796.775818 602.236938,796.775818 609.724365,796.775818 
	C609.898376,796.122986 610.053223,795.812073 610.053833,795.500854 
	C610.083191,780.170532 610.064636,764.840027 610.129822,749.509888 
	C610.169739,740.102539 613.873413,735.457153 623.756958,733.083923 
M1078.581909,797.134094 
	C1081.599365,796.235657 1084.616821,795.337219 1087.674438,794.426819 
	C1089.768066,797.513550 1098.565918,798.386963 1112.127930,796.694397 
	C1112.127930,767.307129 1112.127930,737.889160 1112.127930,708.233826 
	C1104.359131,708.233826 1096.767822,708.233826 1089.193359,708.233826 
	C1088.679321,709.587769 1088.198120,710.855408 1087.640503,712.323853 
	C1079.331055,708.727966 1071.047119,706.992676 1062.452271,708.368958 
	C1035.787109,712.638672 1019.423584,735.490601 1023.972961,761.856018 
	C1028.199707,786.351807 1051.953613,802.026062 1078.581909,797.134094 
M496.670471,618.305847 
	C489.798981,617.805298 484.284821,615.109375 479.651672,608.149780 
	C501.480103,608.149780 521.880432,608.149780 542.210632,608.149780 
	C545.473328,580.878418 531.985291,559.226196 508.505096,553.422241 
	C486.573914,548.001221 464.057281,559.864441 456.038727,581.065002 
	C448.118683,602.005005 457.113922,625.927002 476.763519,636.180603 
	C494.991852,645.692566 519.811707,641.502686 529.869568,627.060486 
	C524.512146,621.963257 519.133484,616.845703 513.738647,611.712830 
	C508.894653,616.177551 503.730438,618.529114 496.670471,618.305847 
M1301.584106,735.961243 
	C1301.382812,735.505066 1301.188354,735.045715 1300.979248,734.593201 
	C1291.144287,713.321411 1267.215942,702.764648 1245.616211,710.166687 
	C1222.938843,717.937927 1210.413696,740.475952 1215.879517,763.675110 
	C1221.223145,786.354797 1242.813354,801.067871 1266.242676,797.788025 
	C1294.721191,793.801208 1312.567627,763.666687 1301.584106,735.961243 
M664.891174,573.401123 
	C653.445923,593.272400 657.528931,617.528625 674.687317,631.598083 
	C691.787231,645.619568 716.440674,645.397522 732.968506,631.072998 
	C749.843140,616.447998 753.837463,592.031616 741.996887,573.159119 
	C723.877319,544.278625 683.394409,544.531921 664.891174,573.401123 
M1351.648682,710.287781 
	C1346.973633,711.104126 1342.298462,711.920410 1337.516724,712.755310 
	C1337.287964,711.083801 1337.091309,709.647461 1336.897949,708.235352 
	C1329.100830,708.235352 1321.496094,708.235352 1313.556396,708.235352 
	C1313.556396,737.870422 1313.556396,767.262451 1313.556396,796.864990 
	C1321.541016,796.864990 1329.258667,796.864990 1337.229492,796.864990 
	C1337.229492,781.250488 1337.167114,765.948608 1337.249756,750.647583 
	C1337.312256,739.058899 1347.705688,731.497620 1358.455322,735.081360 
	C1365.064331,737.284668 1369.182739,743.052246 1369.238281,750.811462 
	C1369.347656,766.092773 1369.270508,781.375488 1369.270508,796.893005 
	C1377.417847,796.893005 1385.145142,796.893005 1393.153687,796.893005 
	C1393.153687,781.648987 1393.225464,766.688538 1393.137207,751.729065 
	C1392.995728,727.754150 1376.573242,711.032654 1351.648682,710.287781 
M862.480286,710.992432 
	C854.995911,711.255554 847.511597,711.518738 839.827515,711.788879 
	C839.714050,711.117981 839.474304,709.700073 839.218018,708.184937 
	C831.347656,708.184937 823.739868,708.184937 815.859497,708.184937 
	C815.859497,737.801025 815.859497,767.225403 815.859497,796.755920 
	C823.824341,796.755920 831.530518,796.755920 839.628540,796.755920 
	C839.628540,781.440613 839.603577,766.482849 839.637268,751.525146 
	C839.660156,741.338989 846.285950,734.109863 855.514099,734.096619 
	C864.668640,734.083496 871.526184,741.389465 871.599426,751.468628 
	C871.688904,763.791199 871.621155,776.114990 871.621399,788.438232 
	C871.621460,791.217651 871.621399,793.997070 871.621399,796.887878 
	C879.818970,796.887878 887.419617,796.887878 895.540649,796.887878 
	C895.540649,795.024475 895.540710,793.392151 895.540710,791.759827 
	C895.540710,778.603882 895.573608,765.447876 895.533081,752.292053 
	C895.468018,731.165039 883.894836,716.400269 862.480286,710.992432 
M374.733368,551.641296 
	C372.939087,551.641296 371.144836,551.641296 369.269562,551.641296 
	C369.269562,581.631836 369.269562,611.052368 369.269562,640.601196 
	C377.267670,640.601196 384.974060,640.601196 392.941284,640.601196 
	C392.941284,625.263489 392.934753,610.287842 392.943573,595.312256 
	C392.949585,585.104187 399.405243,578.054626 408.801422,577.966980 
	C418.103455,577.880310 424.976501,585.069458 425.016571,595.080811 
	C425.070587,608.577515 425.028748,622.074707 425.028046,635.571655 
	C425.027954,637.318604 425.028015,639.065613 425.028015,640.647949 
	C433.399109,640.647949 440.988892,640.647949 448.762970,640.647949 
	C448.762970,623.673035 449.380585,607.005798 448.593170,590.405151 
	C447.768707,573.023315 434.158691,557.884949 417.021881,555.178589 
	C409.289886,553.957458 401.159821,555.257080 393.034576,555.416504 
	C393.001282,555.030212 392.875122,553.566345 392.714691,551.705139 
	C386.931488,551.705139 381.304138,551.705139 374.733368,551.641296 
M1464.872803,779.248657 
	C1471.115845,757.955566 1457.774780,740.043213 1435.635010,739.983643 
	C1433.803833,739.978699 1431.815796,740.342896 1430.191650,739.744995 
	C1428.892578,739.266846 1427.478394,737.720886 1427.157715,736.396362 
	C1426.895386,735.312683 1427.840332,733.326599 1428.847412,732.699158 
	C1430.121582,731.905151 1431.999634,731.883728 1433.619629,731.873108 
	C1443.573975,731.808350 1453.529175,731.840637 1463.692993,731.840637 
	C1463.692993,723.306702 1463.692993,715.263306 1463.692993,706.917542 
	C1452.902222,706.917542 1442.427734,706.911560 1431.953247,706.924316 
	C1430.454834,706.926147 1428.779541,706.598633 1427.488770,707.142273 
	C1422.057251,709.429810 1415.994019,711.061340 1411.536987,714.643677 
	C1402.230469,722.123962 1399.547485,735.099243 1403.729492,745.987427 
	C1408.426147,758.215393 1418.810669,764.874634 1433.079956,764.980774 
	C1436.515259,765.006287 1441.469727,763.678467 1441.381226,769.288025 
	C1441.296509,774.653931 1436.425903,773.063354 1433.230713,773.105591 
	C1422.458008,773.248047 1411.682251,773.159790 1400.793701,773.159790 
	C1400.793701,781.777832 1400.793701,789.801514 1400.793701,798.082886 
	C1412.864868,798.082886 1424.519409,797.975403 1436.171021,798.111084 
	C1449.668457,798.268188 1458.932983,792.015381 1464.872803,779.248657 
M803.854614,716.583740 
	C803.854614,714.149048 803.854614,711.714417 803.854614,709.213440 
	C795.599976,709.213440 788.012939,709.213440 779.994385,709.213440 
	C779.994385,711.085571 779.994385,712.710327 779.994385,714.335022 
	C779.994324,728.661255 780.017883,742.987549 779.986145,757.313721 
	C779.963989,767.349792 773.645447,774.154846 764.316467,774.289307 
	C755.024719,774.423218 748.489868,767.778076 748.334045,757.624146 
	C748.162720,746.465637 748.292175,735.302551 748.290955,724.141418 
	C748.290405,719.186157 748.290833,714.230896 748.290833,709.206543 
	C740.162231,709.206543 732.562195,709.206543 724.704102,709.206543 
	C724.618530,710.902893 724.481506,712.373535 724.479858,713.844299 
	C724.463745,728.170532 724.407227,742.497192 724.515625,756.822571 
	C724.541931,760.298340 724.765686,763.852356 725.524963,767.229614 
	C730.042175,787.322876 748.098877,799.988831 769.022766,797.935730 
	C788.135498,796.060303 803.696533,778.520020 803.835815,758.540405 
	C803.930969,744.881226 803.854248,731.220764 803.854614,716.583740 
M1005.466370,793.965027 
	C1012.569885,790.451050 1018.641663,785.761475 1023.140625,778.726868 
	C1016.527405,774.210449 1010.157227,769.859985 1003.862671,765.561218 
	C992.369995,778.542358 978.031738,775.300964 971.111145,768.554565 
	C962.809204,760.461670 962.531311,746.877014 970.650269,738.433167 
	C979.737427,728.982361 992.147095,729.752197 1003.883301,740.763000 
	C1010.093933,736.320068 1016.369812,731.830383 1022.626282,727.354614 
	C1010.040955,708.096680 983.339478,702.417786 963.005188,714.298462 
	C942.714539,726.153564 934.944336,752.583984 945.606934,773.478699 
	C956.783997,795.381531 981.945923,804.211914 1005.466370,793.965027 
M1164.659302,797.927490 
	C1167.770996,798.282410 1170.882690,798.637329 1174.712158,799.074158 
	C1174.712158,794.783264 1174.712036,790.995361 1174.712036,787.207520 
	C1174.712036,783.255066 1174.712158,779.302612 1174.712158,775.449646 
	C1160.384766,772.981995 1151.568115,766.110413 1150.176758,755.048462 
	C1149.211670,747.376709 1149.991089,739.485474 1149.991089,730.983521 
	C1158.008301,730.983521 1166.216919,730.983521 1174.458984,730.983521 
	C1174.458984,723.346252 1174.458984,716.416443 1174.458984,708.821289 
	C1166.021484,708.821289 1157.826904,708.821289 1149.055054,708.821289 
	C1149.055054,699.125671 1149.055054,690.091431 1149.055054,680.731934 
	C1141.930054,683.079895 1135.490601,685.326843 1128.966187,687.292053 
	C1126.258911,688.107483 1125.459839,689.466797 1125.480347,692.278381 
	C1125.614258,710.566345 1125.413940,728.856934 1125.568848,747.144592 
	C1125.790894,773.369934 1138.654541,790.257263 1164.659302,797.927490 
M780.339661,634.174377 
	C788.588806,639.539185 797.479309,642.659363 807.692139,642.307556 
	C807.692139,634.349121 807.692139,626.771484 807.692139,619.088562 
	C806.060242,618.772156 804.601501,618.499207 803.146790,618.205688 
	C792.611450,616.080200 785.423462,609.668396 783.570984,599.360596 
	C782.167480,591.550720 783.292847,583.286499 783.292847,574.700623 
	C791.448181,574.700623 799.512146,574.700623 807.579956,574.700623 
	C807.579956,567.118225 807.579956,560.067444 807.579956,552.446472 
	C799.200012,552.446472 791.142273,552.446472 782.706055,552.446472 
	C782.706055,542.942810 782.706055,534.010315 782.706055,524.311646 
	C774.451111,527.047974 766.788391,529.588013 758.886292,532.207397 
	C758.886292,552.174988 759.032166,571.981323 758.842712,591.784485 
	C758.673950,609.422485 765.626404,623.337585 780.339661,634.174377 
M1181.377686,736.500000 
	C1181.377686,756.576416 1181.377686,776.652893 1181.377686,796.890259 
	C1189.657715,796.890259 1197.382446,796.890259 1205.072998,796.890259 
	C1205.072998,766.484070 1205.072998,736.400391 1205.072998,705.907532 
	C1197.988159,708.258301 1191.447876,710.613220 1184.786377,712.551697 
	C1181.948608,713.377441 1181.237549,714.797607 1181.320923,717.533386 
	C1181.503540,723.517273 1181.377808,729.510559 1181.377686,736.500000 
M931.841553,766.500000 
	C931.841553,746.453491 931.841553,726.406982 931.841553,705.843994 
	C924.693481,708.162781 918.292419,710.446777 911.762451,712.269043 
	C908.556091,713.163818 907.797668,714.766968 907.813721,717.913574 
	C907.941895,743.046265 907.882935,768.179993 907.893738,793.313354 
	C907.894226,794.432678 908.015564,795.552002 908.085083,796.749634 
	C916.132507,796.749634 923.828735,796.749634 931.856750,796.749634 
	C931.856750,786.758484 931.856750,777.129211 931.841553,766.500000 
z"/>
<path fill="#3342FF" opacity="1.000000" stroke="none" 
	d="
M314.177368,518.849060 
	C338.534393,526.614868 353.763794,542.743896 358.564545,567.314087 
	C363.170990,590.889587 355.863220,611.437317 337.346466,626.797668 
	C316.868866,643.784668 293.553192,646.725830 269.701752,634.934998 
	C246.086716,623.261108 234.046982,603.240723 234.896637,576.803528 
	C236.204132,536.119629 274.253143,508.458038 314.177368,518.849060 
M298.368958,616.763428 
	C300.181091,616.532959 301.999023,616.340637 303.804413,616.065918 
	C318.062592,613.896790 330.542694,602.297180 333.820496,588.187683 
	C337.328247,573.088318 331.725494,557.550903 319.627960,548.829224 
	C306.977448,539.708862 290.490204,538.899048 277.911591,546.780212 
	C263.180176,556.010254 256.605255,572.387512 260.959351,589.006287 
	C265.222504,605.277954 279.252502,615.917053 298.368958,616.763428 
z"/>
<path fill="#3940F7" opacity="1.000000" stroke="none" 
	d="
M644.636780,548.356506 
	C664.508484,586.375305 645.236572,629.998108 604.671448,639.521484 
	C602.088562,640.127808 599.435730,640.784912 596.810669,640.805420 
	C581.337891,640.925964 565.863647,640.864807 550.089966,640.864807 
	C550.089966,599.716980 550.089966,558.678589 550.089966,518.205688 
	C567.364502,518.205688 584.609680,516.779785 601.509399,518.586060 
	C620.349609,520.599670 634.528442,531.797546 644.636780,548.356506 
M626.663086,588.811951 
	C628.850525,580.113525 628.430786,571.565552 624.373108,563.520203 
	C614.466980,543.878235 596.838440,539.990356 574.780701,542.862000 
	C574.780701,566.119080 574.778870,589.414612 574.787292,612.710144 
	C574.787659,613.668701 574.885071,614.627258 574.965393,616.102173 
	C580.491638,616.102173 585.775085,616.173218 591.056091,616.089050 
	C607.857544,615.821411 621.282593,605.716248 626.663086,588.811951 
z"/>
<path fill="#463BE1" opacity="1.000000" stroke="none" 
	d="
M574.912476,747.178833 
	C574.914551,763.945251 574.914551,780.234131 574.914551,796.815918 
	C566.889038,796.815918 559.303711,796.815918 551.034241,796.815918 
	C551.034241,795.077271 551.034241,793.313171 551.034241,791.549133 
	C551.034241,777.217834 551.064331,762.886475 551.023254,748.555298 
	C550.997498,739.565247 545.117371,733.173401 536.895813,733.059814 
	C528.804688,732.948059 522.590393,739.302490 522.488342,748.301270 
	C522.325867,762.630737 522.441589,776.963379 522.439758,791.294678 
	C522.439514,793.095154 522.439758,794.895630 522.439758,796.902649 
	C514.323059,796.902649 506.713318,796.902649 498.645355,796.902649 
	C498.645355,781.734192 498.647491,766.768433 498.642334,751.802673 
	C498.641754,750.137268 498.698669,748.463501 498.559875,746.807800 
	C497.889648,738.811462 491.706757,732.925720 484.183350,733.055054 
	C476.291870,733.190796 470.126984,739.253540 470.025635,747.546204 
	C469.848480,762.041992 469.969604,776.541443 469.965881,791.039368 
	C469.965424,792.845520 469.965790,794.651672 469.965790,796.783325 
	C462.054443,796.783325 454.470062,796.783325 446.483856,796.783325 
	C446.483856,767.521484 446.483856,738.141235 446.483856,708.378052 
	C454.035797,708.378052 461.767883,708.378052 469.656219,708.378052 
	C469.851013,709.384277 470.065460,710.491821 470.322449,711.819397 
	C485.205383,706.509216 498.526581,709.447571 510.495361,719.458984 
	C523.622681,708.801514 537.979492,705.664429 553.379517,713.177856 
	C567.092773,719.868347 574.112366,731.428345 574.912476,747.178833 
z"/>
<path fill="#493BDE" opacity="1.000000" stroke="none" 
	d="
M623.357178,733.118896 
	C613.873413,735.457153 610.169739,740.102539 610.129822,749.509888 
	C610.064636,764.840027 610.083191,780.170532 610.053833,795.500854 
	C610.053223,795.812073 609.898376,796.122986 609.724365,796.775818 
	C602.236938,796.775818 594.655212,796.775818 586.654175,796.775818 
	C586.654175,767.476929 586.654175,738.104492 586.654175,708.014465 
	C593.799438,708.014465 601.058289,707.895264 608.303223,708.159912 
	C609.245605,708.194397 610.115723,710.206299 611.066589,711.359497 
	C629.475464,707.476868 633.876587,708.332092 649.353455,718.268555 
	C657.253845,715.208862 664.062378,711.388428 671.337952,709.979492 
	C691.953979,705.987244 712.039001,721.274414 714.788391,742.210754 
	C715.069031,744.347717 715.028809,746.534973 715.031372,748.699036 
	C715.049805,764.657593 715.041382,780.616089 715.041382,796.845215 
	C707.024536,796.845215 699.442810,796.845215 691.176331,796.845215 
	C691.176331,794.963257 691.176086,793.193054 691.176331,791.422852 
	C691.178223,777.437866 690.802185,763.439331 691.305969,749.472412 
	C691.684998,738.964172 683.968872,733.076111 676.994263,733.051025 
	C668.624146,733.020874 662.769531,739.606689 662.705139,749.429688 
	C662.614502,763.258362 662.684265,777.087952 662.685364,790.917175 
	C662.685486,792.726990 662.685364,794.536743 662.685364,796.731628 
	C654.792786,796.731628 647.226501,796.731628 638.884033,796.731628 
	C638.884033,795.154785 638.884094,793.406067 638.884033,791.657288 
	C638.883789,777.326294 638.944153,762.994995 638.862061,748.664490 
	C638.807556,739.140747 633.349487,733.613342 623.357178,733.118896 
z"/>
<path fill="#3F3EED" opacity="1.000000" stroke="none" 
	d="
M351.077576,770.577820 
	C350.024292,771.481995 348.804443,772.250671 347.942261,773.310364 
	C330.834473,794.338013 308.756958,802.559021 282.594330,796.159119 
	C256.375153,789.745300 240.641205,772.040771 235.511261,745.529724 
	C230.043976,717.275513 246.589584,688.125854 273.889984,676.974854 
	C301.208435,665.816467 333.101318,675.151672 349.222015,699.033386 
	C349.399719,699.296692 349.463074,699.637146 349.774597,700.449646 
	C343.141846,704.864685 336.411957,709.344360 329.690247,713.818604 
	C311.349823,690.417603 284.779297,694.832153 271.739685,707.326294 
	C256.508881,721.919922 255.518829,745.992004 269.785461,761.294739 
	C285.822693,778.496704 308.369110,776.876038 329.608032,757.016968 
	C335.936371,760.954651 342.256866,764.887451 348.798981,768.417908 
	C349.020599,768.015503 348.982391,767.985962 348.660767,768.250549 
	C348.681763,768.936768 349.024384,769.358398 349.367004,769.780029 
	C349.600281,769.181091 349.833588,768.582214 350.297424,768.162720 
	C350.711182,769.087402 350.894379,769.832642 351.077576,770.577820 
z"/>
<path fill="#5437C9" opacity="1.000000" stroke="none" 
	d="
M1078.176025,797.244385 
	C1051.953613,802.026062 1028.199707,786.351807 1023.972961,761.856018 
	C1019.423584,735.490601 1035.787109,712.638672 1062.452271,708.368958 
	C1071.047119,706.992676 1079.331055,708.727966 1087.640503,712.323853 
	C1088.198120,710.855408 1088.679321,709.587769 1089.193359,708.233826 
	C1096.767822,708.233826 1104.359131,708.233826 1112.127930,708.233826 
	C1112.127930,737.889160 1112.127930,767.307129 1112.127930,796.694397 
	C1098.565918,798.386963 1089.768066,797.513550 1087.674438,794.426819 
	C1084.616821,795.337219 1081.599365,796.235657 1078.176025,797.244385 
M1060.964844,733.070374 
	C1050.236816,738.108826 1044.979004,747.784058 1047.464844,757.912415 
	C1050.414795,769.931763 1061.823730,776.854309 1073.775146,773.876587 
	C1085.088013,771.057983 1091.822144,759.239380 1088.856934,747.407654 
	C1086.015503,736.069946 1073.886353,729.569336 1060.964844,733.070374 
z"/>
<path fill="#3940F7" opacity="1.000000" stroke="none" 
	d="
M497.112366,618.292847 
	C503.730438,618.529114 508.894653,616.177551 513.738647,611.712830 
	C519.133484,616.845703 524.512146,621.963257 529.869568,627.060486 
	C519.811707,641.502686 494.991852,645.692566 476.763519,636.180603 
	C457.113922,625.927002 448.118683,602.005005 456.038727,581.065002 
	C464.057281,559.864441 486.573914,548.001221 508.505096,553.422241 
	C531.985291,559.226196 545.473328,580.878418 542.210632,608.149780 
	C521.880432,608.149780 501.480103,608.149780 479.651672,608.149780 
	C484.284821,615.109375 489.798981,617.805298 497.112366,618.292847 
M482.333923,585.185181 
	C493.310547,585.185181 504.287170,585.185181 515.806458,585.185181 
	C507.280579,573.239136 491.884766,571.905457 482.564667,581.669373 
	C481.817413,582.452209 481.850525,583.979858 482.333923,585.185181 
z"/>
<path fill="#5D36BF" opacity="1.000000" stroke="none" 
	d="
M1301.727539,736.321350 
	C1312.567627,763.666687 1294.721191,793.801208 1266.242676,797.788025 
	C1242.813354,801.067871 1221.223145,786.354797 1215.879517,763.675110 
	C1210.413696,740.475952 1222.938843,717.937927 1245.616211,710.166687 
	C1267.215942,702.764648 1291.144287,713.321411 1300.979248,734.593201 
	C1301.188354,735.045715 1301.382812,735.505066 1301.727539,736.321350 
M1279.326538,761.509216 
	C1279.607666,760.732727 1279.926514,759.967651 1280.163818,759.177979 
	C1282.705811,750.720764 1279.944336,741.823425 1273.094971,736.358704 
	C1266.384399,731.004639 1256.538818,730.199402 1249.256104,734.408936 
	C1241.421143,738.937744 1237.328979,747.456360 1238.728882,756.322998 
	C1240.133789,765.221741 1247.001587,772.485229 1255.416382,773.972534 
	C1265.454346,775.746643 1273.542480,771.725159 1279.326538,761.509216 
z"/>
<path fill="#3F3EED" opacity="1.000000" stroke="none" 
	d="
M665.060913,573.082031 
	C683.394409,544.531921 723.877319,544.278625 741.996887,573.159119 
	C753.837463,592.031616 749.843140,616.447998 732.968506,631.072998 
	C716.440674,645.397522 691.787231,645.619568 674.687317,631.598083 
	C657.528931,617.528625 653.445923,593.272400 665.060913,573.082031 
M683.544922,589.312195 
	C680.502747,600.518555 683.906311,610.001587 692.829712,615.182251 
	C701.160217,620.018555 711.832703,618.779602 718.558167,611.928894 
	C724.825806,605.544556 726.759583,597.855042 723.627625,589.445984 
	C720.354370,580.657654 713.516235,575.681824 704.273438,575.369324 
	C694.783508,575.048462 687.836853,579.824036 683.544922,589.312195 
z"/>
<path fill="#463BE1" opacity="1.000000" stroke="none" 
	d="
M351.115112,770.955994 
	C350.894379,769.832642 350.711182,769.087402 350.025940,768.017944 
	C349.343384,767.791138 349.162872,767.888550 348.982391,767.985962 
	C348.982391,767.985962 349.020599,768.015503 349.032288,768.036560 
	C348.640259,760.830811 347.190063,753.480774 348.024017,746.399719 
	C350.815094,722.701538 372.600525,706.016968 397.037262,708.060364 
	C419.941528,709.975708 438.700531,731.389771 437.735565,754.518860 
	C436.721466,778.825500 417.178101,797.998047 393.154541,798.050415 
	C373.528656,798.093262 359.677643,788.848450 351.115112,770.955994 
M396.903473,773.964966 
	C398.318909,773.502808 399.786285,773.158081 401.141235,772.559143 
	C409.120209,769.031616 414.221466,760.894226 413.910004,752.308594 
	C413.597565,743.694275 407.990631,736.009155 399.793518,732.959900 
	C391.661835,729.934998 382.540314,732.221191 376.604645,738.771667 
	C370.718719,745.267151 369.412048,754.564270 373.278229,762.439819 
	C377.429657,770.896545 384.957764,774.738892 396.903473,773.964966 
z"/>
<path fill="#6135BB" opacity="1.000000" stroke="none" 
	d="
M1352.100464,710.281189 
	C1376.573242,711.032654 1392.995728,727.754150 1393.137207,751.729065 
	C1393.225464,766.688538 1393.153687,781.648987 1393.153687,796.893005 
	C1385.145142,796.893005 1377.417847,796.893005 1369.270508,796.893005 
	C1369.270508,781.375488 1369.347656,766.092773 1369.238281,750.811462 
	C1369.182739,743.052246 1365.064331,737.284668 1358.455322,735.081360 
	C1347.705688,731.497620 1337.312256,739.058899 1337.249756,750.647583 
	C1337.167114,765.948608 1337.229492,781.250488 1337.229492,796.864990 
	C1329.258667,796.864990 1321.541016,796.864990 1313.556396,796.864990 
	C1313.556396,767.262451 1313.556396,737.870422 1313.556396,708.235352 
	C1321.496094,708.235352 1329.100830,708.235352 1336.897949,708.235352 
	C1337.091309,709.647461 1337.287964,711.083801 1337.516724,712.755310 
	C1342.298462,711.920410 1346.973633,711.104126 1352.100464,710.281189 
z"/>
<path fill="#503AD3" opacity="1.000000" stroke="none" 
	d="
M862.899658,711.051758 
	C883.894836,716.400269 895.468018,731.165039 895.533081,752.292053 
	C895.573608,765.447876 895.540710,778.603882 895.540710,791.759827 
	C895.540710,793.392151 895.540649,795.024475 895.540649,796.887878 
	C887.419617,796.887878 879.818970,796.887878 871.621399,796.887878 
	C871.621399,793.997070 871.621460,791.217651 871.621399,788.438232 
	C871.621155,776.114990 871.688904,763.791199 871.599426,751.468628 
	C871.526184,741.389465 864.668640,734.083496 855.514099,734.096619 
	C846.285950,734.109863 839.660156,741.338989 839.637268,751.525146 
	C839.603577,766.482849 839.628540,781.440613 839.628540,796.755920 
	C831.530518,796.755920 823.824341,796.755920 815.859497,796.755920 
	C815.859497,767.225403 815.859497,737.801025 815.859497,708.184937 
	C823.739868,708.184937 831.347656,708.184937 839.218018,708.184937 
	C839.474304,709.700073 839.714050,711.117981 839.827515,711.788879 
	C847.511597,711.518738 854.995911,711.255554 862.899658,711.051758 
z"/>
<path fill="#3940F7" opacity="1.000000" stroke="none" 
	d="
M375.205078,551.673218 
	C381.304138,551.705139 386.931488,551.705139 392.714691,551.705139 
	C392.875122,553.566345 393.001282,555.030212 393.034576,555.416504 
	C401.159821,555.257080 409.289886,553.957458 417.021881,555.178589 
	C434.158691,557.884949 447.768707,573.023315 448.593170,590.405151 
	C449.380585,607.005798 448.762970,623.673035 448.762970,640.647949 
	C440.988892,640.647949 433.399109,640.647949 425.028015,640.647949 
	C425.028015,639.065613 425.027954,637.318604 425.028046,635.571655 
	C425.028748,622.074707 425.070587,608.577515 425.016571,595.080811 
	C424.976501,585.069458 418.103455,577.880310 408.801422,577.966980 
	C399.405243,578.054626 392.949585,585.104187 392.943573,595.312256 
	C392.934753,610.287842 392.941284,625.263489 392.941284,640.601196 
	C384.974060,640.601196 377.267670,640.601196 369.269562,640.601196 
	C369.269562,611.052368 369.269562,581.631836 369.269562,551.641296 
	C371.144836,551.641296 372.939087,551.641296 375.205078,551.673218 
z"/>
<path fill="#6135BB" opacity="1.000000" stroke="none" 
	d="
M1464.711670,779.603271 
	C1458.932983,792.015381 1449.668457,798.268188 1436.171021,798.111084 
	C1424.519409,797.975403 1412.864868,798.082886 1400.793701,798.082886 
	C1400.793701,789.801514 1400.793701,781.777832 1400.793701,773.159790 
	C1411.682251,773.159790 1422.458008,773.248047 1433.230713,773.105591 
	C1436.425903,773.063354 1441.296509,774.653931 1441.381226,769.288025 
	C1441.469727,763.678467 1436.515259,765.006287 1433.079956,764.980774 
	C1418.810669,764.874634 1408.426147,758.215393 1403.729492,745.987427 
	C1399.547485,735.099243 1402.230469,722.123962 1411.536987,714.643677 
	C1415.994019,711.061340 1422.057251,709.429810 1427.488770,707.142273 
	C1428.779541,706.598633 1430.454834,706.926147 1431.953247,706.924316 
	C1442.427734,706.911560 1452.902222,706.917542 1463.692993,706.917542 
	C1463.692993,715.263306 1463.692993,723.306702 1463.692993,731.840637 
	C1453.529175,731.840637 1443.573975,731.808350 1433.619629,731.873108 
	C1431.999634,731.883728 1430.121582,731.905151 1428.847412,732.699158 
	C1427.840332,733.326599 1426.895386,735.312683 1427.157715,736.396362 
	C1427.478394,737.720886 1428.892578,739.266846 1430.191650,739.744995 
	C1431.815796,740.342896 1433.803833,739.978699 1435.635010,739.983643 
	C1457.774780,740.043213 1471.115845,757.955566 1464.711670,779.603271 
z"/>
<path fill="#493BDE" opacity="1.000000" stroke="none" 
	d="
M803.854492,717.072327 
	C803.854248,731.220764 803.930969,744.881226 803.835815,758.540405 
	C803.696533,778.520020 788.135498,796.060303 769.022766,797.935730 
	C748.098877,799.988831 730.042175,787.322876 725.524963,767.229614 
	C724.765686,763.852356 724.541931,760.298340 724.515625,756.822571 
	C724.407227,742.497192 724.463745,728.170532 724.479858,713.844299 
	C724.481506,712.373535 724.618530,710.902893 724.704102,709.206543 
	C732.562195,709.206543 740.162231,709.206543 748.290833,709.206543 
	C748.290833,714.230896 748.290405,719.186157 748.290955,724.141418 
	C748.292175,735.302551 748.162720,746.465637 748.334045,757.624146 
	C748.489868,767.778076 755.024719,774.423218 764.316467,774.289307 
	C773.645447,774.154846 779.963989,767.349792 779.986145,757.313721 
	C780.017883,742.987549 779.994324,728.661255 779.994385,714.335022 
	C779.994385,712.710327 779.994385,711.085571 779.994385,709.213440 
	C788.012939,709.213440 795.599976,709.213440 803.854614,709.213440 
	C803.854614,711.714417 803.854614,714.149048 803.854492,717.072327 
z"/>
<path fill="#503AD3" opacity="1.000000" stroke="none" 
	d="
M1005.114929,794.102173 
	C981.945923,804.211914 956.783997,795.381531 945.606934,773.478699 
	C934.944336,752.583984 942.714539,726.153564 963.005188,714.298462 
	C983.339478,702.417786 1010.040955,708.096680 1022.626282,727.354614 
	C1016.369812,731.830383 1010.093933,736.320068 1003.883301,740.763000 
	C992.147095,729.752197 979.737427,728.982361 970.650269,738.433167 
	C962.531311,746.877014 962.809204,760.461670 971.111145,768.554565 
	C978.031738,775.300964 992.369995,778.542358 1003.862671,765.561218 
	C1010.157227,769.859985 1016.527405,774.210449 1023.140625,778.726868 
	C1018.641663,785.761475 1012.569885,790.451050 1005.114929,794.102173 
z"/>
<path fill="#5437C9" opacity="1.000000" stroke="none" 
	d="
M1164.249146,797.854248 
	C1138.654541,790.257263 1125.790894,773.369934 1125.568848,747.144592 
	C1125.413940,728.856934 1125.614258,710.566345 1125.480347,692.278381 
	C1125.459839,689.466797 1126.258911,688.107483 1128.966187,687.292053 
	C1135.490601,685.326843 1141.930054,683.079895 1149.055054,680.731934 
	C1149.055054,690.091431 1149.055054,699.125671 1149.055054,708.821289 
	C1157.826904,708.821289 1166.021484,708.821289 1174.458984,708.821289 
	C1174.458984,716.416443 1174.458984,723.346252 1174.458984,730.983521 
	C1166.216919,730.983521 1158.008301,730.983521 1149.991089,730.983521 
	C1149.991089,739.485474 1149.211670,747.376709 1150.176758,755.048462 
	C1151.568115,766.110413 1160.384766,772.981995 1174.712158,775.449646 
	C1174.712158,779.302612 1174.712036,783.255066 1174.712036,787.207520 
	C1174.712036,790.995361 1174.712158,794.783264 1174.712158,799.074158 
	C1170.882690,798.637329 1167.770996,798.282410 1164.249146,797.854248 
z"/>
<path fill="#3F3EED" opacity="1.000000" stroke="none" 
	d="
M780.037292,633.978760 
	C765.626404,623.337585 758.673950,609.422485 758.842712,591.784485 
	C759.032166,571.981323 758.886292,552.174988 758.886292,532.207397 
	C766.788391,529.588013 774.451111,527.047974 782.706055,524.311646 
	C782.706055,534.010315 782.706055,542.942810 782.706055,552.446472 
	C791.142273,552.446472 799.200012,552.446472 807.579956,552.446472 
	C807.579956,560.067444 807.579956,567.118225 807.579956,574.700623 
	C799.512146,574.700623 791.448181,574.700623 783.292847,574.700623 
	C783.292847,583.286499 782.167480,591.550720 783.570984,599.360596 
	C785.423462,609.668396 792.611450,616.080200 803.146790,618.205688 
	C804.601501,618.499207 806.060242,618.772156 807.692139,619.088562 
	C807.692139,626.771484 807.692139,634.349121 807.692139,642.307556 
	C797.479309,642.659363 788.588806,639.539185 780.037292,633.978760 
z"/>
<path fill="#5D36BF" opacity="1.000000" stroke="none" 
	d="
M1181.377930,736.000000 
	C1181.377808,729.510559 1181.503540,723.517273 1181.320923,717.533386 
	C1181.237549,714.797607 1181.948608,713.377441 1184.786377,712.551697 
	C1191.447876,710.613220 1197.988159,708.258301 1205.072998,705.907532 
	C1205.072998,736.400391 1205.072998,766.484070 1205.072998,796.890259 
	C1197.382446,796.890259 1189.657715,796.890259 1181.377686,796.890259 
	C1181.377686,776.652893 1181.377686,756.576416 1181.377930,736.000000 
z"/>
<path fill="#503AD3" opacity="1.000000" stroke="none" 
	d="
M931.849121,767.000000 
	C931.856750,777.129211 931.856750,786.758484 931.856750,796.749634 
	C923.828735,796.749634 916.132507,796.749634 908.085083,796.749634 
	C908.015564,795.552002 907.894226,794.432678 907.893738,793.313354 
	C907.882935,768.179993 907.941895,743.046265 907.813721,717.913574 
	C907.797668,714.766968 908.556091,713.163818 911.762451,712.269043 
	C918.292419,710.446777 924.693481,708.162781 931.841553,705.843994 
	C931.841553,726.406982 931.841553,746.453491 931.849121,767.000000 
z"/>
<path fill="#FFFFFF" opacity="1.000000" stroke="none" 
	d="
M297.934875,616.739746 
	C279.252502,615.917053 265.222504,605.277954 260.959351,589.006287 
	C256.605255,572.387512 263.180176,556.010254 277.911591,546.780212 
	C290.490204,538.899048 306.977448,539.708862 319.627960,548.829224 
	C331.725494,557.550903 337.328247,573.088318 333.820496,588.187683 
	C330.542694,602.297180 318.062592,613.896790 303.804413,616.065918 
	C301.999023,616.340637 300.181091,616.532959 297.934875,616.739746 
z"/>
<path fill="#FFFFFF" opacity="1.000000" stroke="none" 
	d="
M626.517395,589.195679 
	C621.282593,605.716248 607.857544,615.821411 591.056091,616.089050 
	C585.775085,616.173218 580.491638,616.102173 574.965393,616.102173 
	C574.885071,614.627258 574.787659,613.668701 574.787292,612.710144 
	C574.778870,589.414612 574.780701,566.119080 574.780701,542.862000 
	C596.838440,539.990356 614.466980,543.878235 624.373108,563.520203 
	C628.430786,571.565552 628.850525,580.113525 626.517395,589.195679 
z"/>
<path fill="#FFFFFF" opacity="1.000000" stroke="none" 
	d="
M348.660767,768.250549 
	C349.162872,767.888550 349.343384,767.791138 349.795410,767.838501 
	C349.833588,768.582214 349.600281,769.181091 349.367004,769.780029 
	C349.024384,769.358398 348.681763,768.936768 348.660767,768.250549 
z"/>
<path fill="#FFFFFF" opacity="1.000000" stroke="none" 
	d="
M1061.361572,732.977295 
	C1073.886353,729.569336 1086.015503,736.069946 1088.856934,747.407654 
	C1091.822144,759.239380 1085.088013,771.057983 1073.775146,773.876587 
	C1061.823730,776.854309 1050.414795,769.931763 1047.464844,757.912415 
	C1044.979004,747.784058 1050.236816,738.108826 1061.361572,732.977295 
z"/>
<path fill="#FFFFFF" opacity="1.000000" stroke="none" 
	d="
M481.927429,585.173279 
	C481.850525,583.979858 481.817413,582.452209 482.564667,581.669373 
	C491.884766,571.905457 507.280579,573.239136 515.806458,585.185181 
	C504.287170,585.185181 493.310547,585.185181 481.927429,585.173279 
z"/>
<path fill="#FFFFFF" opacity="1.000000" stroke="none" 
	d="
M1279.182739,761.868286 
	C1273.542480,771.725159 1265.454346,775.746643 1255.416382,773.972534 
	C1247.001587,772.485229 1240.133789,765.221741 1238.728882,756.322998 
	C1237.328979,747.456360 1241.421143,738.937744 1249.256104,734.408936 
	C1256.538818,730.199402 1266.384399,731.004639 1273.094971,736.358704 
	C1279.944336,741.823425 1282.705811,750.720764 1280.163818,759.177979 
	C1279.926514,759.967651 1279.607666,760.732727 1279.182739,761.868286 
z"/>
<path fill="#FFFFFF" opacity="1.000000" stroke="none" 
	d="
M683.696960,588.952332 
	C687.836853,579.824036 694.783508,575.048462 704.273438,575.369324 
	C713.516235,575.681824 720.354370,580.657654 723.627625,589.445984 
	C726.759583,597.855042 724.825806,605.544556 718.558167,611.928894 
	C711.832703,618.779602 701.160217,620.018555 692.829712,615.182251 
	C683.906311,610.001587 680.502747,600.518555 683.696960,588.952332 
z"/>
<path fill="#FFFFFF" opacity="1.000000" stroke="none" 
	d="
M396.469055,774.009888 
	C384.957764,774.738892 377.429657,770.896545 373.278229,762.439819 
	C369.412048,754.564270 370.718719,745.267151 376.604645,738.771667 
	C382.540314,732.221191 391.661835,729.934998 399.793518,732.959900 
	C407.990631,736.009155 413.597565,743.694275 413.910004,752.308594 
	C414.221466,760.894226 409.120209,769.031616 401.141235,772.559143 
	C399.786285,773.158081 398.318909,773.502808 396.469055,774.009888 
z"/>
</svg>
